<svg width="48" height="48" viewBox="4 0 48 48" fill="none" xmlns="http://www.w3.org/2000/svg">
<g id="speed-amount">
<g id="Union">
<mask id="path-1-inside-1" fill="white">
<path fill-rule="evenodd" clip-rule="evenodd" d="M29 0L27 0L17.5 24L8 48H26H30L30 48H48L29 0Z"/>
</mask>
<path fill-rule="evenodd" clip-rule="evenodd" d="M29 0L27 0L17.5 24L8 48H26H30L30 48H48L29 0Z" fill="#F7F7F7" class="ob-container-background-color-fill"/>
<path d="M27 0V-4H24.2814L23.2808 -1.47219L27 0ZM29 0L32.7192 -1.47219L31.7186 -4H29V0ZM8 48L4.28077 46.5278L2.1147 52H8V48ZM26 48H30V44H26V48ZM26 145H22V149H26V145ZM30 145V149H34V145H30ZM30 48V44H26V48H30ZM48 48V52H53.8853L51.7192 46.5278L48 48ZM27 4L29 4V-4H27V4ZM21.2192 25.4722L30.7192 1.47219L23.2808 -1.47219L13.7808 22.5278L21.2192 25.4722ZM11.7192 49.4722L21.2192 25.4722L13.7808 22.5278L4.28077 46.5278L11.7192 49.4722ZM26 44H8V52H26V44ZM30 145L30 48H22L22 145H30ZM30 141H26V149H30V141ZM26 48L26 145H34L34 48H26ZM48 44H30V52H48V44ZM25.2808 1.47219L44.2808 49.4722L51.7192 46.5278L32.7192 -1.47219L25.2808 1.47219Z" fill="#0080FF" mask="url(#path-1-inside-1)" class="ob-instrument-dynamic-color-fill"/>
</g>
</g>
</svg>
